# AST/ASF file generated using VICON BodyLanguage
# -----------------------------------------------
:version 1.10
:name VICON
:units
  mass 1.0
  length 0.45
  angle deg
:documentation
   .ast/.asf automatically generated from VICON data using
   VICON BodyBuilder and BodyLanguage model FoxedUp or BRILLIANT.MOD
:root
   order TX TY TZ RX RY RZ
   axis XYZ
   position 0 0 0  
   orientation 0 0 0 
:bonedata
  begin
     id 1 
     name lhipjoint
     direction 0.707368 -0.647095 0.284426 
     length 2.60678 
     axis 0 0 0  XYZ
  end
  begin
     id 2 
     name lfemur
     direction 0.34202 -0.939693 0  
     length 6.63812  
     axis 0 0 20  XYZ
    dof rx ry rz
    limits (-160.0 20.0)
           (-70.0 70.0)
           (-60.0 70.0)
  end
  begin
     id 3 
     name ltibia
     direction 0.34202 -0.939693 0   
     length 7.51178   
     axis 0 0 20   XYZ
    dof rx
    limits (-10.0 170.0)
  end
  begin
     id 4 
     name lfoot
     direction 0.121251 -0.333133 0.935051   
     length 1.83716   
     axis -90 7.62852e-016 20   XYZ
    dof rx rz
    limits (-45.0 90.0)
           (-70.0 20.0)
  end
  begin
     id 5 
     name ltoes
     direction 1.53611e-011 -4.21962e-011 1   
     length 0.916133   
     axis -90 7.62852e-016 20   XYZ
    dof rx
    limits (-90.0 20.0)
  end
  begin
     id 6 
     name rhipjoint
     direction -0.692419 -0.660507 0.290321   
     length 2.55385  
     axis 0 0 0  XYZ 
  end
  begin
     id 7 
     name rfemur
     direction -0.34202 -0.939693 0   
     length 7.29079   
     axis 0 0 -20   XYZ
    dof rx ry rz
    limits (-160.0 20.0)
           (-70.0 70.0)
           (-70.0 60.0)
  end
  begin
     id 8 
     name rtibia
     direction -0.34202 -0.939693 0   
     length 7.47143   
     axis 0 0 -20   XYZ
    dof rx
    limits (-10.0 170.0)
 end
 begin
     id 9 
     name rfoot
     direction -0.119907 -0.329441 0.936532   
     length 1.79439  
     axis -90 -7.62852e-016 -20   XYZ
    dof rx rz
    limits (-45.0 90.0)
           (-20.0 70.0)
  end
  begin
     id 10 
     name rtoes
     direction -1.53571e-011 -4.21961e-011 1   
     length 0.896039   
     axis -90 -7.62852e-016 -20   XYZ
    dof rx
    limits (-90.0 20.0)
  end
  begin
     id 11 
     name lowerback
     direction 0.0367721 0.992912 -0.113016   
     length 1.73542   
     axis 0 0 0   XYZ
    dof rx ry rz
    limits (-20.0 45.0)
           (-30.0 30.0)
           (-30.0 30.0)
  end
  begin
     id 12 
     name upperback
     direction -0.000314626 0.990678 0.136227   
     length 1.7514   
     axis 0 0 0   XYZ
    dof rx ry rz
    limits (-20.0 45.0)
           (-30.0 30.0)
           (-30.0 30.0)
  end
  begin
     id 13 
     name thorax
     direction -0.0226159 0.981151 0.191917   
     length 1.71471   
     axis 0 0 0   XYZ
    dof rx ry rz
    limits (-20.0 45.0)
           (-30.0 30.0)
           (-30.0 30.0)
  end
  begin
     id 14 
     name lowerneck
     direction 0.0219333 0.998071 0.0580739   
     length 1.65882   
     axis 0 0 0   XYZ
    dof rx ry rz
    limits (-20.0 45.0)
           (-30.0 30.0)
           (-30.0 30.0)
  end
  begin
     id 15 
     name upperneck
     direction 0.0384529 0.980058 -0.194957   
     length 1.6612   
     axis 0 0 0   XYZ
    dof rx ry rz
    limits (-20.0 45.0)
           (-30.0 30.0)
           (-30.0 30.0)
  end
  begin
     id 16
     name head
     direction 0.00592123 0.997421 -0.0715234  
     length 1.68077  
     axis 0 0 0   XYZ
    dof rx ry rz
    limits (-20.0 45.0)
           (-30.0 30.0)
           (-30.0 30.0)
  end
  begin
     id 17 
     name lclavicle
     direction 0.904803 0.417826 0.0821728  
     length 3.42227  
     axis 0 0 0   XYZ
    dof ry rz
    limits (-20.0 10.0)
           (0.0 20.0)
  end
  begin
     id 18 
     name lhumerus
     direction 1 -4.48965e-011 -2.68786e-027   
     length 5.11878   
     axis -180 -30 -90   XYZ
    dof rx ry rz
    limits (-60.0 90.0)
           (-90.0 90.0)
           (-90.0 90.0)
  end
  begin
     id 19
     name lradius
     direction 1 -4.48965e-011 2.61168e-028   
     length 3.59971   
     axis -180 -30 -90   XYZ
    dof rx
    limits (-10.0 170.0)
  end
  begin
     id 20
     name lwrist
     direction 1 -4.48965e-011 1.58672e-027   
     length 1.79985   
     axis -1.65735e-015 90 90   XYZ
    dof ry
    limits (-180.0 0.0)
 end
  begin
     id 21 
     name lhand
     direction 1 -4.48942e-011 3.17344e-027   
     length 0.62877   
     axis -2.02492e-015 90 90   XYZ
    dof rx rz
    limits (-90.0 90.0)
           (-45.0 45.0)
  end
  begin
     id 22 
     name lfingers
     direction 1 -4.49011e-011 6.34687e-027   
     length 0.506931   
     axis -4.04985e-015 90 90   XYZ
    dof rx
    limits (0.0 90.0)
  end
  begin
     id 23
     name lthumb
     direction 0.707107 -6.34982e-011 0.707107   
     length 0.727854   
     axis -90 45 2.85299e-015   XYZ
    dof rx rz
    limits (-45.0 45.0)
           (-45.0 45.0)
  end
  begin
     id 24 
     name rclavicle
     direction -0.945647 0.32488 0.0143075   
     length 3.52737  
     axis 0 0 0   XYZ 
    dof ry rz
    limits (-10.0 20.0)
           (-20.0 0.0)
  end
  begin
     id 25 
     name rhumerus
     direction -1 -4.48962e-011 1.92182e-027  
     length 5.4902   
     axis -180 30 90   XYZ
    dof rx ry rz
    limits (-90.0 60.0)
           (-90.0 90.0)
           (-90.0 90.0)
  end
  begin
     id 26 
     name rradius
     direction -1 -4.48967e-011 -5.97193e-028   
     length 3.20659   
     axis -180 30 90   XYZ
    dof rx
    limits (-10.0 170.0)
  end
  begin
     id 27 
     name rwrist
     direction -1 -4.48964e-011 1.58672e-027   
     length 1.6033   
     axis -1.65735e-015 -90 -90   XYZ
    dof ry
    limits (-180.0 0.0)
  end
  begin
     id 28
     name rhand
     direction -1 -4.49006e-011 3.17344e-027   
     length 0.691885   
     axis -2.02492e-015 -90 -90   XYZ
    dof rx rz
    limits (-90.0 90.0)
           (-45.0 45.0)
  end
  begin
     id 29
     name rfingers
     direction -1 -4.48908e-011 6.34687e-027   
     length 0.557815   
     axis -4.04985e-015 -90 -90   XYZ
    dof rx
    limits (0.0 90.0)
  end
  begin
     id 30
     name rthumb
     direction -0.707107 -6.34999e-011 0.707107   
     length 0.800915   
     axis -90 -45 -2.85299e-015   XYZ
    dof rx rz
    limits (-45.0 45.0)
           (-45.0 45.0)
  end
:hierarchy
  begin
    root lhipjoint rhipjoint lowerback
    lhipjoint lfemur
    lfemur ltibia
    ltibia lfoot
    lfoot ltoes
    rhipjoint rfemur
    rfemur rtibia
    rtibia rfoot
    rfoot rtoes
    lowerback upperback
    upperback thorax
    thorax lowerneck lclavicle rclavicle
    lowerneck upperneck
    upperneck head
    lclavicle lhumerus
    lhumerus lradius
    lradius lwrist
    lwrist lhand lthumb
    lhand lfingers
    rclavicle rhumerus
    rhumerus rradius
    rradius rwrist
    rwrist rhand rthumb
    rhand rfingers
  end

#!OML:ASF I:\Actors\actors\Patient Classification 1\Patient 1\Session 1\Subject1.ASF
:FULLY-SPECIFIED
:DEGREES
68
root -0.217012 17.5764 8.05567 8.61562 -5.42549 -7.46999
lowerback 3.8319 -2.11655 1.36919
upperback -10.9312 -2.61405 1.42653
thorax -14.0855 -1.30606 1.22791
lowerneck -8.59628 0.429522 4.24931
upperneck 15.8367 -1.09004 5.98904
head 6.26285 0.180547 1.11574
rclavicle 3.57812e-014 1.43125e-014
rhumerus -10.4709 -59.071 -33.7675
rradius 107.825
rwrist -59.1107
rhand 11.9484 -30.5321
rfingers 7.12502
rthumb 36.9719 -56.6038
lclavicle 3.57812e-014 1.43125e-014
lhumerus -40.2801 1.4103 87.303
lradius 32.9532
lwrist 0.716759
lhand -14.6095 -15.3587
lfingers 7.12502
lthumb 11.5414 14.3035
rfemur -1.52238 25.6288 24.4391
rtibia 1.50591
rfoot -11.4662 -20.2894
rtoes -3.60159
lfemur 7.54998 -37.9303 -16.8254
ltibia -4.20119
lfoot -17.7023 46.8553
ltoes 6.26137
69
root -0.216867 17.5815 8.06237 8.58954 -4.7422 -7.37983
lowerback 4.00475 -2.00705 1.7757
upperback -10.8831 -2.45524 1.05632
thorax -14.1774 -1.29946 0.575085
lowerneck -8.90272 0.20547 4.01037
upperneck 15.5586 -1.44786 6.51713
head 6.23785 0.0305438 1.29355
rclavicle -5.52621e-014 -1.66979e-014
rhumerus -2.25275 -57.0605 -35.1243
rradius 108.431
rwrist -56.734
rhand 16.0528 -30.0146
rfingers 7.12502
rthumb 40.8417 -54.9811
lclavicle -5.52621e-014 -1.66979e-014
lhumerus -40.3897 2.06781 86.3099
lradius 32.8507
lwrist 0.560835
lhand -14.2631 -15.3284
lfingers 7.12502
lthumb 11.8755 14.3148
rfemur -1.40531 25.5328 24.435
rtibia 1.50093
rfoot -11.6727 -20.794
rtoes -2.97339
lfemur 7.3315 -38.0316 -16.7314
ltibia -4.17583
lfoot -17.087 46.4714
ltoes 5.44309
70
root -0.218789 17.5874 8.06715 8.52751 -4.03384 -7.30773
lowerback 4.33952 -1.88244 2.31389
upperback -10.8884 -2.26054 0.640116
thorax -14.4435 -1.29474 -0.20122
lowerneck -9.16669 -0.0511262 3.73708
upperneck 15.337 -1.84736 7.06779
head 6.22748 -0.138353 1.48063
rclavicle 1.09332e-014 1.35174e-014
rhumerus 4.24751 -54.2043 -34.6992
rradius 108.506
rwrist -54.322
rhand 20.2883 -29.5048
rfingers 7.12502
rthumb 44.8035 -53.0813
lclavicle 1.09332e-014 1.35174e-014
lhumerus -40.6453 2.74147 85.2046
lradius 32.8429
lwrist 0.530617
lhand -13.9407 -15.3512
lfingers 7.12502
lthumb 12.1862 14.2739
rfemur -1.26995 25.3957 24.4765
rtibia 1.53452
rfoot -11.8904 -21.2816
rtoes -2.40248
lfemur 7.15985 -38.1962 -16.6508
ltibia -4.1401
lfoot -16.5244 46.1281
ltoes 4.63311
71
root -0.223336 17.594 8.07013 8.43128 -3.33576 -7.27149
lowerback 4.82524 -1.74112 2.99127
upperback -10.9446 -2.02295 0.183503
thorax -14.8736 -1.29342 -1.10662
lowerneck -9.39034 -0.333165 3.45816
upperneck 15.1879 -2.28229 7.62017
head 6.23762 -0.322274 1.66633
rclavicle -2.98177e-015 2.38542e-015
rhumerus 9.07669 -50.7066 -32.6034
rradius 108.131
rwrist -52.1103
rhand 24.4787 -28.9356
rfingers 7.12502
rthumb 48.6822 -50.8238
lclavicle -2.98177e-015 2.38542e-015
lhumerus -41.0526 3.38647 83.9754
lradius 32.9087
lwrist 0.575757
lhand -13.6426 -15.4119
lfingers 7.12502
lthumb 12.4737 14.1958
rfemur -1.11675 25.2488 24.5853
rtibia 1.60736
rfoot -12.1167 -21.7521
rtoes -1.90467
lfemur 7.05536 -38.4086 -16.5687
ltibia -4.11451
lfoot -16.0389 45.8405
ltoes 3.8942
72
root -0.230863 17.6012 8.07168 8.3084 -2.67418 -7.28152
lowerback 5.41514 -1.59183 3.7919
upperback -11.0312 -1.75108 -0.294966
thorax -15.411 -1.30089 -2.11903
lowerneck -9.60743 -0.623518 3.19952
upperneck 15.1286 -2.73283 8.14082
head 6.27891 -0.511076 1.83751
rclavicle 1.98785e-015 -1.59028e-015
rhumerus 12.6235 -46.7672 -29.2447
rradius 107.422
rwrist -50.2084
rhand 28.5593 -28.4457
rfingers 7.12502
rthumb 52.4071 -48.3064
lclavicle 1.98785e-015 -1.59028e-015
lhumerus -41.5818 3.99389 82.6165
lradius 33.0312
lwrist 0.681642
lhand -13.3789 -15.4736
lfingers 7.12502
lthumb 12.7279 14.1185
rfemur -0.947127 25.1271 24.7729
rtibia 1.70866
rfoot -12.3465 -22.2162
rtoes -1.44719
lfemur 7.01397 -38.617 -16.4578
ltibia -4.11783
lfoot -15.5937 45.5856
ltoes 3.19805
73
root -0.241375 17.609 8.07266 8.16576 -2.07072 -7.33108
lowerback 6.02637 -1.44575 4.6713
upperback -11.107 -1.4622 -0.768535
thorax -15.9482 -1.31938 -3.18821
lowerneck -9.86248 -0.902885 2.95326
upperneck 15.1502 -3.17226 8.61583
head 6.35509 -0.692291 1.99302
rclavicle -3.77691e-015 8.74653e-015
rhumerus 15.3253 -42.4778 -25.0236
rradius 106.513
rwrist -48.461
rhand 32.1671 -28.0074
rfingers 7.12502
rthumb 55.644 -45.6698
lclavicle -3.77691e-015 8.74653e-015
lhumerus -42.1633 4.63003 81.1239
lradius 33.187
lwrist 0.805941
lhand -13.1872 -15.5342
lfingers 7.12502
lthumb 12.9127 14.0463
rfemur -0.756993 25.0535 25.0289
rtibia 1.81739
rfoot -12.5756 -22.6744
rtoes -0.98394
lfemur 7.02872 -38.7753 -16.3137
ltibia -4.16028
lfoot -15.1513 45.3364
ltoes 2.49976
74
root -0.254689 17.6174 8.07383 8.01237 -1.54213 -7.3948
lowerback 6.59298 -1.30477 5.5793
upperback -11.1451 -1.16604 -1.22325
thorax -16.4036 -1.34404 -4.27077
lowerneck -10.1712 -1.16257 2.68269
upperneck 15.2249 -3.58461 9.06365
head 6.45986 -0.859261 2.14578
rclavicle 6.36111e-015 1.11319e-014
rhumerus 17.5815 -37.969 -20.2955
rradius 105.508
rwrist -46.6182
rhand 35.3037 -27.6125
rfingers 7.12502
rthumb 58.4015 -42.9682
lclavicle 6.36111e-015 1.11319e-014
lhumerus -42.7377 5.34579 79.5116
lradius 33.3453
lwrist 0.911164
lhand -13.0961 -15.5776
lfingers 7.12502
lthumb 13.0006 13.9973
rfemur -0.546425 25.0269 25.3171
rtibia 1.91092
rfoot -12.7952 -23.1118
rtoes -0.527084
lfemur 7.08191 -38.8474 -16.1538
ltibia -4.23586
lfoot -14.6974 45.0596
ltoes 1.79382
75
root -0.270787 17.6266 8.07534 7.86018 -1.10042 -7.44642
lowerback 7.09151 -1.16301 6.4707
upperback -11.1444 -0.863235 -1.6565
thorax -16.7549 -1.36615 -5.33663
lowerneck -10.5094 -1.40082 2.38028
upperneck 15.3131 -3.96129 9.48853
head 6.57602 -1.01015 2.29889
rclavicle 5.1684e-015 -4.45278e-014
rhumerus 19.6575 -33.3216 -15.2709
rradius 104.533
rwrist -44.5429
rhand 37.8239 -27.3655
rfingers 7.12502
rthumb 60.5681 -40.5354
lclavicle 5.1684e-015 -4.45278e-014
lhumerus -43.2905 6.10497 77.8252
lradius 33.4958
lwrist 1.01931
lhand -13.1019 -15.5992
lfingers 7.12502
lthumb 12.995 13.9761
rfemur -0.32859 25.0425 25.5983
rtibia 1.97878
rfoot -12.9877 -23.5176
rtoes -0.13133
lfemur 7.13993 -38.8031 -15.9886
ltibia -4.32483
lfoot -14.2393 44.7229
ltoes 1.09095
76
root -0.289552 17.6368 8.07704 7.71879 -0.753291 -7.46954
lowerback 7.50202 -1.0151 7.29668
upperback -11.1017 -0.556401 -2.05764
thorax -16.9796 -1.37516 -6.34191
lowerneck -10.8483 -1.61402 2.06371
upperneck 15.3678 -4.28896 9.86682
head 6.68151 -1.14249 2.44284
rclavicle -1.66979e-014 1.59028e-015
rhumerus 21.7921 -28.6588 -10.1229
rradius 103.621
rwrist -42.0771
rhand 40.0363 -27.2569
rfingers 7.12502
rthumb 62.4253 -38.211
lclavicle -1.66979e-014 1.59028e-015
lhumerus -43.8094 6.88623 76.1181
lradius 33.6294
lwrist 1.11328
lhand -13.1854 -15.6628
lfingers 7.12502
lthumb 12.9145 13.9176
rfemur -0.117047 25.0899 25.8455
rtibia 2.01814
rfoot -13.1353 -23.8779
rtoes 0.154929
lfemur 7.1778 -38.6408 -15.8281
ltibia -4.40361
lfoot -13.8305 44.3214
ltoes 0.462737
77
root -0.310369 17.6473 8.07861 7.58796 -0.499106 -7.4791
lowerback 7.86445 -0.849217 8.07518
upperback -11.0446 -0.226724 -2.43552
thorax -17.1356 -1.36565 -7.30856
lowerneck -11.1433 -1.81299 1.77772
upperneck 15.3801 -4.58241 10.1761
head 6.7642 -1.26471 2.56187
rclavicle 3.97569e-016 -1.11319e-014
rhumerus 24.0724 -24.0798 -4.92941
rradius 102.8
rwrist -39.4114
rhand 42.0938 -27.3783
rfingers 7.12502
rthumb 64.1064 -35.976
lclavicle 3.97569e-016 -1.11319e-014
lhumerus -44.3412 7.5745 74.4532
lradius 33.7688
lwrist 1.20359
lhand -13.3373 -15.696
lfingers 7.12502
lthumb 12.768 13.8936
rfemur 0.0903953 25.1466 26.0737
rtibia 2.02713
rfoot -13.2323 -24.17
rtoes 0.332962
lfemur 7.19626 -38.3747 -15.6657
ltibia -4.45731
lfoot -13.5028 43.8705
ltoes -0.0574643
78
root -0.332836 17.6574 8.07962 7.46345 -0.331744 -7.50154
lowerback 8.19985 -0.660228 8.81546
upperback -10.9812 0.135585 -2.7858
thorax -17.2436 -1.33342 -8.23748
lowerneck -11.3739 -1.99968 1.5636
upperneck 15.3302 -4.84573 10.4002
head 6.81211 -1.37965 2.64349
rclavicle 1.59028e-015 9.54166e-015
rhumerus 26.5664 -19.6673 0.253915
rradius 102.036
rwrist -36.6555
rhand 44.1685 -27.6229
rfingers 7.12502
rthumb 65.7472 -33.5046
lclavicle 1.59028e-015 9.54166e-015
lhumerus -44.8955 8.11561 72.8688
lradius 33.9002
lwrist 1.28039
lhand -13.5037 -15.8035
lfingers 7.12502
lthumb 12.6076 13.7961
rfemur 0.296381 25.2092 26.315
rtibia 2.01164
rfoot -13.2863 -24.3924
rtoes 0.438382
lfemur 7.20459 -38.0225 -15.482
ltibia -4.48457
lfoot -13.2352 43.3985
ltoes -0.527038
79
root -0.357026 17.6669 8.07998 7.34828 -0.243337 -7.53771
lowerback 8.50228 -0.449342 9.4823
upperback -10.9132 0.522406 -3.10148
thorax -17.3004 -1.27528 -9.09588
lowerneck -11.5685 -2.17357 1.4101
upperneck 15.2519 -5.08867 10.5783
head 6.84217 -1.48724 2.70158
rclavicle -5.56597e-015 2.06736e-014
rhumerus 29.3489 -15.5303 5.23726
rradius 101.327
rwrist -34.0447
rhand 46.3256 -28.0171
rfingers 7.12502
rthumb 67.3823 -30.65
lclavicle -5.56597e-015 2.06736e-014
lhumerus -45.47 8.48855 71.4163
lradius 34.058
lwrist 1.39693
lhand -13.6771 -15.7795
lfingers 7.12502
lthumb 12.4404 13.8303
rfemur 0.491923 25.2904 26.5679
rtibia 1.9817
rfoot -13.3124 -24.5615
rtoes 0.507316
lfemur 7.20307 -37.6182 -15.279
ltibia -4.48537
lfoot -13.0259 42.9421
ltoes -0.95622
80
root -0.382688 17.6756 8.07965 7.24413 -0.216674 -7.59378
lowerback 8.77083 -0.22587 10.054
upperback -10.8458 0.916772 -3.37555
thorax -17.3156 -1.19488 -9.85608
lowerneck -11.7099 -2.3258 1.31882
upperneck 15.1445 -5.30585 10.7506
head 6.85162 -1.58216 2.74977
rclavicle 3.57812e-015 -4.77083e-015
rhumerus 32.4686 -11.7263 9.82267
rradius 100.636
rwrist -31.6516
rhand 48.5635 -28.566
rfingers 7.12502
rthumb 68.9844 -27.2917
lclavicle 3.57812e-015 -4.77083e-015
lhumerus -46.0202 8.85989 70.0255
lradius 34.1004
lwrist 1.42505
lhand -13.8443 -15.6747
lfingers 7.12502
lthumb 12.2793 13.9448
rfemur 0.669466 25.3835 26.8344
rtibia 1.94538
rfoot -13.321 -24.6811
rtoes 0.568994
lfemur 7.18748 -37.1884 -15.0487
ltibia -4.45966
lfoot -12.8633 42.5188
ltoes -1.36224
81
root -0.409371 17.6834 8.07855 7.1528 -0.230396 -7.67611
lowerback 9.00378 0.00215371 10.5209
upperback -10.784 1.30506 -3.60365
thorax -17.3003 -1.0968 -10.5012
lowerneck -11.7976 -2.45077 1.2872
upperneck 15.0369 -5.49713 10.943
head 6.85028 -1.66113 2.79735
rclavicle -2.38542e-015 -2.8625e-014
rhumerus 35.8998 -8.27044 13.8278
rradius 99.8997
rwrist -29.3697
rhand 50.8724 -29.1948
rfingers 7.12502
rthumb 70.512 -23.2228
lclavicle -2.38542e-015 -2.8625e-014
lhumerus -46.5656 9.30176 68.665
lradius 34.026
lwrist 1.33696
lhand -13.9784 -15.5181
lfingers 7.12502
lthumb 12.1499 14.109
rfemur 0.819805 25.4683 27.114
rtibia 1.90849
rfoot -13.3126 -24.7478
rtoes 0.619814
lfemur 7.15408 -36.7605 -14.7822
ltibia -4.41337
lfoot -12.7093 42.1459
ltoes -1.80156
